<?xml version="1.0" encoding="UTF-8"?>
<svg width="24px" height="24px" viewBox="0 0 24 24" version="1.1" xmlns="http://www.w3.org/2000/svg" xmlns:xlink="http://www.w3.org/1999/xlink">
    <title>ic_superprivacy</title>
    <g id="ic_superprivacy" stroke="none" stroke-width="1" fill="none" fill-rule="evenodd">
        <path d="M19.7316,4.42635154 C20.5074,4.80373486 21,5.59271785 21,6.45775948 L21,11.2844731 C21,16.5683412 17.6459,21.1782174 12.7509,22.8712748 C12.6614,22.9021799 12.6828,22.8934502 12.6828,22.8934502 C12.2384,23.0355333 11.7609,23.0355333 11.3165,22.8933498 C11.3165,22.8933498 11.3421,22.9033839 11.252,22.8722782 C6.3555,21.1803246 3,16.5696456 3,11.2844731 L3,6.45775948 C3,5.59271785 3.4926,4.80373486 4.2684,4.42635154 L10.6912,1.3016257 C11.5177,0.8994581 12.4823,0.8994581 13.3088,1.3016257 L19.7316,4.42635154 Z M13.3551,11.8877244 C14.044,11.4410053 14.5,10.6636619 14.5,9.77935479 C14.5,8.39394361 13.3807,7.27082436 12,7.27082436 C10.6193,7.27082436 9.5,8.39394361 9.5,9.77935479 C9.5,10.6635616 9.9559,11.440905 10.6448,11.8876241 L9.9136,15.4270602 C9.9079,15.4462254 9.9009,15.4807428 9.8962,15.5154608 C9.8388,15.9424127 10.1484,16.3015339 10.5765,16.3015339 L13.4235,16.3015339 C13.4591,16.3015339 13.4946,16.2990254 13.5296,16.293908 C13.9175,16.2373155 14.1578,15.8887301 14.1027,15.5074335 L13.3551,11.8877244 Z" id="形状" fill="#000000" fill-opacity="0.9"></path>
    </g>
</svg>