<svg width="79.000000" height="64.000000" viewBox="0 0 79 64" fill="none" xmlns="http://www.w3.org/2000/svg" xmlns:xlink="http://www.w3.org/1999/xlink">
	<desc>
			Created with Pixso.
	</desc>
	<defs>
		<clipPath id="clip7_1">
			<rect id="ic_statusbar_nearlink_battery_kuang.svg" width="79.000000" height="64.000000" fill="white" fill-opacity="0"/>
		</clipPath>
	</defs>
	<g clip-path="url(#clip7_1)">
		<path id="形状结合" d="M64.61 7.5L64.43 7.5L60.57 7.5L60.39 7.5L60.23 7.52C59.02 7.68 58.09 8.63 58 9.81L57.99 9.98L58 10.16L58.02 10.33C58.19 11.5 59.17 12.4 60.38 12.49L60.56 12.49L64.42 12.5L64.6 12.49L64.76 12.47C65.97 12.31 66.9 11.36 66.99 10.18L67 10.01L66.99 9.83L66.97 9.66C66.8 8.49 65.82 7.59 64.61 7.5ZM66.5 15.5C70.01 15.5 72.87 18.28 72.99 21.76L73 22L73 50C73 53.51 70.21 56.37 66.73 56.49L66.5 56.5L58.5 56.5C54.98 56.5 52.12 53.71 52 50.23L52 50L52 22C52 18.48 54.78 15.62 58.26 15.5L58.5 15.5L66.5 15.5ZM66.17 19.5L58.82 19.5C57.42 19.5 56.26 20.51 56.1 21.81L56.08 21.98L56.08 22.16L56.08 49.83C56.08 51.19 57.12 52.31 58.46 52.47L58.64 52.49L58.82 52.5L66.17 52.5C67.57 52.5 68.73 51.48 68.89 50.18L68.91 50.01L68.91 49.83L68.91 22.16C68.91 20.69 67.69 19.5 66.17 19.5Z" fill="#FFFFFF" fill-opacity="1.000000" fill-rule="evenodd"/>
		<path id="矢量 4" d="M28.28 25.93L32.03 22.22L32.57 22.7C33.07 23.22 33.49 23.78 33.82 24.37C34.11 24.88 34.39 25.51 34.66 26.27C34.69 26.34 34.72 26.42 34.74 26.5C35.37 28.22 35.7 30.05 35.74 31.99C35.74 32.65 35.7 33.31 35.61 33.97C35.44 35.23 35.11 36.47 34.62 37.69C34.31 38.44 33.95 39.16 33.53 39.85C32.92 40.85 32.19 41.78 31.34 42.64L21.39 52.61C20.94 53.05 20.44 53.39 19.9 53.62C19.38 53.83 18.83 53.95 18.23 53.97C17.73 53.99 17.25 53.92 16.79 53.78C16.13 53.58 15.53 53.23 14.97 52.71C13.41 51.24 12.04 49.64 10.87 47.91C9.89 46.46 9.04 44.92 8.34 43.28C7.66 41.72 7.13 40.13 6.75 38.51C6.25 36.39 6 34.22 6 31.99C6 29.32 6.34 26.76 7.04 24.29C7.39 23.06 7.82 21.85 8.34 20.67C8.87 19.45 9.47 18.28 10.16 17.15C11.49 14.99 13.11 13 15.03 11.19C15.45 10.81 15.91 10.52 16.4 10.32C16.97 10.09 17.6 9.98 18.28 10C19.02 10.02 19.69 10.19 20.28 10.5C20.7 10.71 21.09 11 21.43 11.37L23.59 13.77L19.83 17.54L18.45 16.03C18.32 15.93 18.2 15.88 18.08 15.88C17.98 15.88 17.87 15.94 17.77 16.06C15.48 18.74 13.8 21.35 12.73 23.88C12.49 24.45 12.28 25.03 12.09 25.63C11.45 27.65 11.13 29.77 11.13 31.99C11.13 35.28 11.69 38.28 12.79 40.97C13.91 43.64 15.65 46.08 18 48.28C18.1 48.35 18.19 48.38 18.27 48.38C18.36 48.38 18.46 48.35 18.56 48.29L27.49 38.87C28.44 37.89 29.15 36.82 29.63 35.67C29.74 35.41 29.84 35.15 29.92 34.89C30.21 33.96 30.35 33 30.35 31.99C30.33 30.76 30.11 29.61 29.69 28.53C29.67 28.46 29.64 28.39 29.61 28.32C29.57 28.22 29.52 28.09 29.45 27.93C29.3 27.56 29.19 27.31 29.13 27.18C29.07 27.06 28.92 26.82 28.7 26.45L28.39 26.06L28.28 25.93ZM33.8 10C34.48 9.98 35.11 10.1 35.68 10.34C36.17 10.55 36.62 10.86 37.02 11.26C38.55 12.7 39.9 14.27 41.06 15.97C42.07 17.45 42.94 19.02 43.67 20.69C44.33 22.21 44.84 23.77 45.22 25.35C45.73 27.5 45.99 29.72 45.99 31.99C45.99 34.25 45.74 36.46 45.22 38.61C44.85 40.2 44.33 41.76 43.67 43.28C43.02 44.77 42.25 46.19 41.38 47.54C40.15 49.43 38.7 51.17 37.02 52.78C36.56 53.19 36.06 53.5 35.53 53.71C35 53.91 34.43 54 33.82 53.99C33.23 53.99 32.67 53.88 32.16 53.67C31.62 53.45 31.12 53.12 30.66 52.67L28.31 50.34L32.06 46.52L33.5 47.9C33.6 47.99 33.7 48.05 33.77 48.07C33.83 48.07 33.89 48.03 33.97 47.95C36.3 45.55 38 43.09 39.07 40.59C40.13 38.08 40.67 35.21 40.67 31.99C40.67 28.66 40.14 25.73 39.09 23.19C38.05 20.66 36.35 18.29 33.99 16.08C33.86 15.99 33.75 15.94 33.65 15.94C33.55 15.94 33.45 15.98 33.35 16.07L24.51 25.25C23.62 26.15 22.94 27.15 22.48 28.23C22.29 28.66 22.14 29.1 22.03 29.56C22 29.66 21.98 29.75 21.96 29.85C21.79 30.58 21.71 31.33 21.71 32.1C21.7 32.99 21.81 33.84 22.02 34.64C22.22 35.46 22.44 36.17 22.68 36.76C22.88 37.25 23.08 37.61 23.27 37.83L23.71 38.25L19.98 41.97L19.41 41.55C19.06 41.24 18.73 40.91 18.43 40.55C18.1 40.14 17.81 39.69 17.56 39.21C17.35 38.8 17.16 38.33 16.98 37.83C16.83 37.37 16.68 36.85 16.54 36.27C16.34 35.49 16.2 34.7 16.13 33.9C15.97 32.1 16.14 30.28 16.65 28.42C17.07 26.9 17.68 25.49 18.49 24.2C19.09 23.23 19.81 22.32 20.64 21.48L30.62 11.37C30.95 11.02 31.32 10.74 31.72 10.53C32.33 10.2 33.02 10.02 33.8 10Z" fill="#FFFFFF" fill-opacity="1.000000" fill-rule="evenodd"/>
		<path id="Fill 11备份 3" d="M25.44 10.8C25.44 10.8 21.14 5.25 21.15 5.25C21.05 5.09 20.99 4.96 20.99 4.79C20.99 4.35 21.36 4 21.8 4C21.8 4 30.39 4 30.4 4C30.84 4 31.2 4.35 31.2 4.79C31.2 4.96 31.14 5.11 31.05 5.24L26.76 10.8C26.62 11.01 26.37 11.14 26.1 11.14C25.82 11.14 25.58 11.01 25.44 10.8Z" fill="#FFFFFF" fill-opacity="1.000000" fill-rule="evenodd"/>
		<path id="Fill 11备份 5" d="M26.76 53.19C26.76 53.19 31.05 58.74 31.05 58.74C31.14 58.9 31.2 59.03 31.2 59.21C31.2 59.64 30.84 60 30.4 60C30.4 60 21.8 60 21.8 60C21.36 60 21 59.64 21 59.21C21 59.03 21.05 58.88 21.15 58.75L25.44 53.19C25.58 52.98 25.83 52.85 26.1 52.85C26.37 52.85 26.62 52.99 26.76 53.19Z" fill="#FFFFFF" fill-opacity="1.000000" fill-rule="evenodd"/>
	</g>
</svg>
