<?xml version="1.0" encoding="UTF-8"?>
<svg width="24px" height="24px" viewBox="0 0 24 24" version="1.1" xmlns="http://www.w3.org/2000/svg" xmlns:xlink="http://www.w3.org/1999/xlink">
    <title>ic_g</title>
    <g id="页面-1" stroke="none" stroke-width="1" fill="none" fill-rule="evenodd" fill-opacity="0.9">
        <g id="预览页f态备份-8" transform="translate(-222, -56)" fill="#FFFFFF" fill-rule="nonzero">
            <g id="编组-9" transform="translate(112, 52)">
                <g id="编组" transform="translate(110, 4)">
                    <path d="M19.5,2.5 C21.709139,2.5 23.5,4.290861 23.5,6.5 L23.5,17.5 C23.5,19.709139 21.709139,21.5 19.5,21.5 L4.5,21.5 C2.290861,21.5 0.5,19.709139 0.5,17.5 L0.5,6.5 C0.5,4.290861 2.290861,2.5 4.5,2.5 L19.5,2.5 Z M19.5,4 L15.75,4 L15.75,6 C15.75,6.41421356 15.4142136,6.75 15,6.75 C14.5857864,6.75 14.25,6.41421356 14.25,6 L14.25,4 L9.75,4 L9.75,6 C9.75,6.41421356 9.41421356,6.75 9,6.75 C8.58578644,6.75 8.25,6.41421356 8.25,6 L8.25,4 L4.5,4 C3.11928813,4 2,5.11928813 2,6.5 L2,17.5 C2,18.8807119 3.11928813,20 4.5,20 L8.25,20 L8.25,18 C8.25,17.5857864 8.58578644,17.25 9,17.25 C9.41421356,17.25 9.75,17.5857864 9.75,18 L9.75,20 L14.25,20 L14.25,18 C14.25,17.5857864 14.5857864,17.25 15,17.25 C15.4142136,17.25 15.75,17.5857864 15.75,18 L15.75,20 L19.5,20 C20.8807119,20 22,18.8807119 22,17.5 L22,6.5 C22,5.11928813 20.8807119,4 19.5,4 Z M9,12.75 C9.41421356,12.75 9.75,13.0857864 9.75,13.5 L9.75,15 C9.75,15.4142136 9.41421356,15.75 9,15.75 C8.58578644,15.75 8.25,15.4142136 8.25,15 L8.25,13.5 C8.25,13.0857864 8.58578644,12.75 9,12.75 Z M15,12.75 C15.4142136,12.75 15.75,13.0857864 15.75,13.5 L15.75,15 C15.75,15.4142136 15.4142136,15.75 15,15.75 C14.5857864,15.75 14.25,15.4142136 14.25,15 L14.25,13.5 C14.25,13.0857864 14.5857864,12.75 15,12.75 Z M9,8.25 C9.41421356,8.25 9.75,8.58578644 9.75,9 L9.75,10.5 C9.75,10.9142136 9.41421356,11.25 9,11.25 C8.58578644,11.25 8.25,10.9142136 8.25,10.5 L8.25,9 C8.25,8.58578644 8.58578644,8.25 9,8.25 Z M15,8.25 C15.4142136,8.25 15.75,8.58578644 15.75,9 L15.75,10.5 C15.75,10.9142136 15.4142136,11.25 15,11.25 C14.5857864,11.25 14.25,10.9142136 14.25,10.5 L14.25,9 C14.25,8.58578644 14.5857864,8.25 15,8.25 Z" id="形状结合"></path>
                </g>
            </g>
        </g>
    </g>
</svg>