<?xml version="1.0" encoding="UTF-8"?>
<svg width="40px" height="40px" viewBox="0 0 40 40" version="1.1" xmlns="http://www.w3.org/2000/svg" xmlns:xlink="http://www.w3.org/1999/xlink">
    <title>ic_plus</title>
    <g id="页面-1" stroke="none" stroke-width="1" fill="none" fill-rule="evenodd">
        <g id="#illustration_主题选择-直板机4备份-2" transform="translate(-160.000000, -357.000000)" fill="#FFFFFF">
            <g id="编组" transform="translate(54.000000, 104.000000)">
                <g id="ic_plus" transform="translate(106.000000, 253.000000)">
                    <rect id="矩形备份" fill-opacity="0.2" x="0" y="0" width="40" height="40" rx="20"></rect>
                    <path d="M20.6166667,19.3833333 L20.6166667,12.5 C20.6166667,12.3277778 20.5583333,12.1805556 20.4416667,12.0583333 C20.3194444,11.9416667 20.1722222,11.8833333 20,11.8833333 C19.8277778,11.8833333 19.6805556,11.9416667 19.5583333,12.0583333 C19.4416667,12.1805556 19.3833333,12.3277778 19.3833333,12.5 L19.3833333,19.3833333 L12.5,19.3833333 C12.3277778,19.3833333 12.1805556,19.4416667 12.0583333,19.5583333 C11.9416667,19.6805556 11.8833333,19.8277778 11.8833333,20 C11.8833333,20.1722222 11.9416667,20.3194444 12.0583333,20.4416667 C12.1805556,20.5583333 12.3277778,20.6166667 12.5,20.6166667 L19.3833333,20.6166667 L19.3833333,27.5 C19.3833333,27.6722222 19.4416667,27.8194444 19.5583333,27.9416667 C19.6805556,28.0583333 19.8277778,28.1166667 20,28.1166667 C20.1722222,28.1166667 20.3194444,28.0583333 20.4416667,27.9416667 C20.5583333,27.8194444 20.6166667,27.6722222 20.6166667,27.5 L20.6166667,20.6166667 L27.5,20.6166667 C27.6722222,20.6166667 27.8194444,20.5583333 27.9416667,20.4416667 C28.0583333,20.3194444 28.1166667,20.1722222 28.1166667,20 C28.1166667,19.8277778 28.0583333,19.6805556 27.9416667,19.5583333 C27.8194444,19.4416667 27.6722222,19.3833333 27.5,19.3833333 L20.6166667,19.3833333 Z" id="路径"></path>
                </g>
            </g>
        </g>
    </g>
</svg>