<svg width="73.000000" height="64.000000" viewBox="0 0 73 64" fill="none" xmlns="http://www.w3.org/2000/svg" xmlns:xlink="http://www.w3.org/1999/xlink">
	<desc>
			Created with Pixso.
	</desc>
	<defs>
		<clipPath id="clip4_1619">
			<rect id="ic_statusbar_wifi7_0" width="73.000000" height="64.000000" fill="white" fill-opacity="0"/>
		</clipPath>
	</defs>
	<g clip-path="url(#clip4_1619)">
		<path id="7" d="M3.82 8.1L12.43 8.1L6.06 27.55L10.7 27.55L17.3 6.91L17.3 4.13L3.82 4.13L3.82 8.1Z" fill="#FFFFFF" fill-opacity="1.000000" fill-rule="evenodd"/>
		<path id="路径" d="M39.25 56C35.73 56 32.88 53.16 32.88 49.66C32.88 46.15 35.73 43.32 39.25 43.32C42.76 43.32 45.61 46.15 45.61 49.66C45.61 53.16 42.76 56 39.25 56Z" fill="#FFFFFF" fill-opacity="0.300000" fill-rule="evenodd"/>
		<path id="路径" d="" fill="#979797" fill-opacity="0" fill-rule="evenodd"/>
		<path id="路径" d="M39.25 31.54C34.15 31.54 29.54 33.63 26.23 37L26.24 37.01L26.22 37.04C25.89 37.42 25.66 37.86 25.54 38.32C25.41 38.84 25.41 39.4 25.54 39.93C25.68 40.45 25.96 40.95 26.37 41.36C26.78 41.78 27.28 42.05 27.81 42.19C28.33 42.33 28.89 42.33 29.41 42.19C29.91 42.06 30.38 41.8 30.78 41.43C32.93 39.24 35.93 37.88 39.25 37.88C42.46 37.88 45.37 39.16 47.5 41.23L47.7 41.43L47.71 41.42L47.79 41.5C48.17 41.83 48.61 42.06 49.07 42.18C49.6 42.31 50.15 42.31 50.68 42.18C51.21 42.04 51.7 41.76 52.12 41.35C52.53 40.94 52.8 40.44 52.94 39.91C53.08 39.39 53.08 38.83 52.94 38.3C52.82 37.84 52.59 37.39 52.25 37.01C48.95 33.63 44.34 31.54 39.25 31.54Z" fill="#FFFFFF" fill-opacity="0.300000" fill-rule="evenodd"/>
		<path id="路径" d="" fill="#979797" fill-opacity="0" fill-rule="evenodd"/>
		<path id="路径" d="M39.25 19.77C30.83 19.77 23.23 23.22 17.78 28.78L17.79 28.79L17.78 28.8C17.44 29.18 17.22 29.62 17.1 30.08C16.96 30.61 16.96 31.16 17.1 31.69C17.24 32.22 17.51 32.72 17.92 33.13C18.34 33.54 18.83 33.82 19.36 33.95C19.89 34.09 20.44 34.09 20.97 33.95C21.46 33.82 21.93 33.58 22.33 33.21C26.62 28.83 32.61 26.11 39.25 26.11C45.88 26.11 51.87 28.83 56.16 33.21L56.28 33.31C56.66 33.64 57.1 33.87 57.56 33.99C58.09 34.13 58.64 34.13 59.17 33.99C59.69 33.85 60.19 33.58 60.61 33.16C61.02 32.75 61.29 32.25 61.43 31.73C61.57 31.2 61.57 30.64 61.43 30.12C61.3 29.64 61.06 29.18 60.71 28.79C55.27 23.22 47.66 19.77 39.25 19.77Z" fill="#FFFFFF" fill-opacity="0.300000" fill-rule="evenodd"/>
		<path id="路径" d="" fill="#979797" fill-opacity="0" fill-rule="evenodd"/>
		<mask id="mask_4_1617" fill="white">
			<path id="减去顶层" d="M39.4608 8C51.191 8 61.7932 12.8121 69.387 20.5631L69.338 20.6115C69.5659 20.9304 69.7277 21.2822 69.8231 21.6477C69.9607 22.1743 69.9607 22.7294 69.8231 23.2559C69.6855 23.7825 69.4105 24.2805 68.9978 24.6932C68.5852 25.1058 68.0872 25.3809 67.5605 25.5184C67.0339 25.656 66.4789 25.656 65.9524 25.5184C65.559 25.4156 65.1814 25.2362 64.8436 24.9799L64.8329 24.9908L64.7299 24.8894L64.6207 24.7942L64.4984 24.6765C64.4321 24.6104 64.3695 24.5419 64.3104 24.4716C57.9148 18.2048 49.1409 14.3396 39.4608 14.3396C33.6217 14.3396 28.1123 15.746 23.2552 18.2373L23.2552 11.244C28.239 9.15479 33.7145 8 39.4608 8Z" clip-rule="evenodd" fill="" fill-opacity="1.000000" fill-rule="evenodd"/>
		</mask>
		<path id="减去顶层" d="M39.4608 8C51.191 8 61.7932 12.8121 69.387 20.5631L69.338 20.6115C69.5659 20.9304 69.7277 21.2822 69.8231 21.6477C69.9607 22.1743 69.9607 22.7294 69.8231 23.2559C69.6855 23.7825 69.4105 24.2805 68.9978 24.6932C68.5852 25.1058 68.0872 25.3809 67.5605 25.5184C67.0339 25.656 66.4789 25.656 65.9524 25.5184C65.559 25.4156 65.1814 25.2362 64.8436 24.9799L64.8329 24.9908L64.7299 24.8894L64.6207 24.7942L64.4984 24.6765C64.4321 24.6104 64.3695 24.5419 64.3104 24.4716C57.9148 18.2048 49.1409 14.3396 39.4608 14.3396C33.6217 14.3396 28.1123 15.746 23.2552 18.2373L23.2552 11.244C28.239 9.15479 33.7145 8 39.4608 8Z" clip-rule="evenodd" fill="#FFFFFF" fill-opacity="0.300000" fill-rule="evenodd" mask="url(#mask_4_1617)"/>
		<path id="减去顶层" d="" clip-rule="evenodd" fill="#979797" fill-opacity="0.000000" fill-rule="evenodd"/>
	</g>
</svg>
